{
    "asset" : {
        "generator" : "Khronos glTF Blender I/O v3.4.50",
        "version" : "2.0"
    },
    "scene" : 0,
    "scenes" : [
        {
            "name" : "Scene",
            "nodes" : [
                5,
                6
            ]
        }
    ],
    "nodes" : [
        {
            "name" : "Bone.001",
            "rotation" : [
                -0.22566483914852142,
                -3.8093414213520636e-16,
                -7.373220635523712e-16,
                0.9742050170898438
            ],
            "translation" : [
                -2.9778502051908996e-23,
                0.08149567246437073,
                0
            ]
        },
        {
            "children" : [
                0
            ],
            "name" : "Bone.002",
            "rotation" : [
                7.450580596923828e-09,
                -6.617444900424222e-24,
                5.955700410381799e-23,
                1
            ],
            "translation" : [
                -1.737079286361358e-23,
                0.08149567246437073,
                4.656612873077393e-10
            ]
        },
        {
            "name" : "Bone.004",
            "rotation" : [
                0.01391567848622799,
                1.0659172722531259e-14,
                3.317768726418535e-09,
                0.9999032020568848
            ],
            "translation" : [
                1.6096342856010025e-15,
                0.06895570456981659,
                -9.313225746154785e-09
            ]
        },
        {
            "children" : [
                2
            ],
            "name" : "Bone.003",
            "rotation" : [
                -0.2372966855764389,
                1.1580434744473678e-07,
                -2.8287967523965563e-08,
                0.9714373350143433
            ],
            "scale" : [
                1,
                1,
                0.9999999403953552
            ],
            "translation" : [
                -1.737079286361358e-23,
                0.08149567246437073,
                4.656612873077393e-10
            ]
        },
        {
            "children" : [
                1,
                3
            ],
            "name" : "Bone",
            "rotation" : [
                -0.1069888100028038,
                5.20022166620944e-16,
                5.20022166620944e-16,
                0.9942602515220642
            ],
            "scale" : [
                1,
                0.9999999403953552,
                0.9999999403953552
            ]
        },
        {
            "children" : [
                4
            ],
            "name" : "Armature",
            "translation" : [
                0,
                -0.08931288868188858,
                0.002683220198377967
            ]
        },
        {
            "mesh" : 0,
            "name" : "Cube.005",
            "skin" : 0
        }
    ],
    "animations" : [
        {
            "channels" : [
                {
                    "sampler" : 0,
                    "target" : {
                        "node" : 4,
                        "path" : "translation"
                    }
                },
                {
                    "sampler" : 1,
                    "target" : {
                        "node" : 4,
                        "path" : "rotation"
                    }
                },
                {
                    "sampler" : 2,
                    "target" : {
                        "node" : 4,
                        "path" : "scale"
                    }
                },
                {
                    "sampler" : 3,
                    "target" : {
                        "node" : 1,
                        "path" : "translation"
                    }
                },
                {
                    "sampler" : 4,
                    "target" : {
                        "node" : 1,
                        "path" : "rotation"
                    }
                },
                {
                    "sampler" : 5,
                    "target" : {
                        "node" : 1,
                        "path" : "scale"
                    }
                },
                {
                    "sampler" : 6,
                    "target" : {
                        "node" : 0,
                        "path" : "translation"
                    }
                },
                {
                    "sampler" : 7,
                    "target" : {
                        "node" : 0,
                        "path" : "rotation"
                    }
                },
                {
                    "sampler" : 8,
                    "target" : {
                        "node" : 0,
                        "path" : "scale"
                    }
                },
                {
                    "sampler" : 9,
                    "target" : {
                        "node" : 3,
                        "path" : "translation"
                    }
                },
                {
                    "sampler" : 10,
                    "target" : {
                        "node" : 3,
                        "path" : "rotation"
                    }
                },
                {
                    "sampler" : 11,
                    "target" : {
                        "node" : 3,
                        "path" : "scale"
                    }
                },
                {
                    "sampler" : 12,
                    "target" : {
                        "node" : 2,
                        "path" : "translation"
                    }
                },
                {
                    "sampler" : 13,
                    "target" : {
                        "node" : 2,
                        "path" : "rotation"
                    }
                },
                {
                    "sampler" : 14,
                    "target" : {
                        "node" : 2,
                        "path" : "scale"
                    }
                }
            ],
            "name" : "ArmatureAction",
            "samplers" : [
                {
                    "input" : 8,
                    "interpolation" : "LINEAR",
                    "output" : 9
                },
                {
                    "input" : 8,
                    "interpolation" : "LINEAR",
                    "output" : 10
                },
                {
                    "input" : 8,
                    "interpolation" : "LINEAR",
                    "output" : 11
                },
                {
                    "input" : 8,
                    "interpolation" : "LINEAR",
                    "output" : 12
                },
                {
                    "input" : 8,
                    "interpolation" : "LINEAR",
                    "output" : 13
                },
                {
                    "input" : 8,
                    "interpolation" : "LINEAR",
                    "output" : 14
                },
                {
                    "input" : 8,
                    "interpolation" : "LINEAR",
                    "output" : 15
                },
                {
                    "input" : 8,
                    "interpolation" : "LINEAR",
                    "output" : 16
                },
                {
                    "input" : 8,
                    "interpolation" : "LINEAR",
                    "output" : 17
                },
                {
                    "input" : 8,
                    "interpolation" : "LINEAR",
                    "output" : 18
                },
                {
                    "input" : 8,
                    "interpolation" : "LINEAR",
                    "output" : 19
                },
                {
                    "input" : 8,
                    "interpolation" : "LINEAR",
                    "output" : 20
                },
                {
                    "input" : 8,
                    "interpolation" : "LINEAR",
                    "output" : 21
                },
                {
                    "input" : 8,
                    "interpolation" : "LINEAR",
                    "output" : 22
                },
                {
                    "input" : 8,
                    "interpolation" : "LINEAR",
                    "output" : 23
                }
            ]
        }
    ],
    "materials" : [
        {
            "doubleSided" : true,
            "name" : "Material.002",
            "pbrMetallicRoughness" : {
                "baseColorTexture" : {
                    "index" : 0
                },
                "metallicFactor" : 0,
                "roughnessFactor" : 0.5
            }
        }
    ],
    "meshes" : [
        {
            "name" : "Cube",
            "primitives" : [
                {
                    "attributes" : {
                        "POSITION" : 0,
                        "TEXCOORD_0" : 1,
                        "TEXCOORD_1" : 2,
                        "NORMAL" : 3,
                        "JOINTS_0" : 4,
                        "WEIGHTS_0" : 5
                    },
                    "indices" : 6,
                    "material" : 0
                }
            ]
        }
    ],
    "textures" : [
        {
            "sampler" : 0,
            "source" : 0
        }
    ],
    "images" : [
        {
            "bufferView" : 7,
            "mimeType" : "image/jpeg",
            "name" : "A207_2021_52.jpg"
        }
    ],
    "skins" : [
        {
            "inverseBindMatrices" : 7,
            "joints" : [
                4,
                1,
                0,
                3,
                2
            ],
            "name" : "Armature"
        }
    ],
    "accessors" : [
        {
            "bufferView" : 0,
            "componentType" : 5126,
            "count" : 3977,
            "max" : [
                0.02586725354194641,
                0.1345442235469818,
                0.05732589587569237
            ],
            "min" : [
                -0.004156053997576237,
                -0.08934123814105988,
                -0.11892873048782349
            ],
            "type" : "VEC3"
        },
        {
            "bufferView" : 1,
            "componentType" : 5126,
            "count" : 3977,
            "type" : "VEC2"
        },
        {
            "bufferView" : 2,
            "componentType" : 5126,
            "count" : 3977,
            "type" : "VEC2"
        },
        {
            "bufferView" : 3,
            "componentType" : 5126,
            "count" : 3977,
            "type" : "VEC3"
        },
        {
            "bufferView" : 4,
            "componentType" : 5121,
            "count" : 3977,
            "type" : "VEC4"
        },
        {
            "bufferView" : 5,
            "componentType" : 5126,
            "count" : 3977,
            "type" : "VEC4"
        },
        {
            "bufferView" : 6,
            "componentType" : 5123,
            "count" : 10212,
            "type" : "SCALAR"
        },
        {
            "bufferView" : 8,
            "componentType" : 5126,
            "count" : 5,
            "type" : "MAT4"
        },
        {
            "bufferView" : 9,
            "componentType" : 5126,
            "count" : 73,
            "max" : [
                3
            ],
            "min" : [
                0
            ],
            "type" : "SCALAR"
        },
        {
            "bufferView" : 10,
            "componentType" : 5126,
            "count" : 73,
            "type" : "VEC3"
        },
        {
            "bufferView" : 11,
            "componentType" : 5126,
            "count" : 73,
            "type" : "VEC4"
        },
        {
            "bufferView" : 12,
            "componentType" : 5126,
            "count" : 73,
            "type" : "VEC3"
        },
        {
            "bufferView" : 13,
            "componentType" : 5126,
            "count" : 73,
            "type" : "VEC3"
        },
        {
            "bufferView" : 14,
            "componentType" : 5126,
            "count" : 73,
            "type" : "VEC4"
        },
        {
            "bufferView" : 15,
            "componentType" : 5126,
            "count" : 73,
            "type" : "VEC3"
        },
        {
            "bufferView" : 16,
            "componentType" : 5126,
            "count" : 73,
            "type" : "VEC3"
        },
        {
            "bufferView" : 17,
            "componentType" : 5126,
            "count" : 73,
            "type" : "VEC4"
        },
        {
            "bufferView" : 18,
            "componentType" : 5126,
            "count" : 73,
            "type" : "VEC3"
        },
        {
            "bufferView" : 19,
            "componentType" : 5126,
            "count" : 73,
            "type" : "VEC3"
        },
        {
            "bufferView" : 20,
            "componentType" : 5126,
            "count" : 73,
            "type" : "VEC4"
        },
        {
            "bufferView" : 21,
            "componentType" : 5126,
            "count" : 73,
            "type" : "VEC3"
        },
        {
            "bufferView" : 22,
            "componentType" : 5126,
            "count" : 73,
            "type" : "VEC3"
        },
        {
            "bufferView" : 23,
            "componentType" : 5126,
            "count" : 73,
            "type" : "VEC4"
        },
        {
            "bufferView" : 24,
            "componentType" : 5126,
            "count" : 73,
            "type" : "VEC3"
        }
    ],
    "bufferViews" : [
        {
            "buffer" : 0,
            "byteLength" : 47724,
            "byteOffset" : 0,
            "target" : 34962
        },
        {
            "buffer" : 0,
            "byteLength" : 31816,
            "byteOffset" : 47724,
            "target" : 34962
        },
        {
            "buffer" : 0,
            "byteLength" : 31816,
            "byteOffset" : 79540,
            "target" : 34962
        },
        {
            "buffer" : 0,
            "byteLength" : 47724,
            "byteOffset" : 111356,
            "target" : 34962
        },
        {
            "buffer" : 0,
            "byteLength" : 15908,
            "byteOffset" : 159080,
            "target" : 34962
        },
        {
            "buffer" : 0,
            "byteLength" : 63632,
            "byteOffset" : 174988,
            "target" : 34962
        },
        {
            "buffer" : 0,
            "byteLength" : 20424,
            "byteOffset" : 238620,
            "target" : 34963
        },
        {
            "buffer" : 0,
            "byteLength" : 681015,
            "byteOffset" : 259044
        },
        {
            "buffer" : 0,
            "byteLength" : 320,
            "byteOffset" : 940060
        },
        {
            "buffer" : 0,
            "byteLength" : 292,
            "byteOffset" : 940380
        },
        {
            "buffer" : 0,
            "byteLength" : 876,
            "byteOffset" : 940672
        },
        {
            "buffer" : 0,
            "byteLength" : 1168,
            "byteOffset" : 941548
        },
        {
            "buffer" : 0,
            "byteLength" : 876,
            "byteOffset" : 942716
        },
        {
            "buffer" : 0,
            "byteLength" : 876,
            "byteOffset" : 943592
        },
        {
            "buffer" : 0,
            "byteLength" : 1168,
            "byteOffset" : 944468
        },
        {
            "buffer" : 0,
            "byteLength" : 876,
            "byteOffset" : 945636
        },
        {
            "buffer" : 0,
            "byteLength" : 876,
            "byteOffset" : 946512
        },
        {
            "buffer" : 0,
            "byteLength" : 1168,
            "byteOffset" : 947388
        },
        {
            "buffer" : 0,
            "byteLength" : 876,
            "byteOffset" : 948556
        },
        {
            "buffer" : 0,
            "byteLength" : 876,
            "byteOffset" : 949432
        },
        {
            "buffer" : 0,
            "byteLength" : 1168,
            "byteOffset" : 950308
        },
        {
            "buffer" : 0,
            "byteLength" : 876,
            "byteOffset" : 951476
        },
        {
            "buffer" : 0,
            "byteLength" : 876,
            "byteOffset" : 952352
        },
        {
            "buffer" : 0,
            "byteLength" : 1168,
            "byteOffset" : 953228
        },
        {
            "buffer" : 0,
            "byteLength" : 876,
            "byteOffset" : 954396
        }
    ],
    "samplers" : [
        {
            "magFilter" : 9729,
            "minFilter" : 9987
        }
    ],
    "buffers" : [
        {
            "byteLength" : 955272,
            "uri" : "data:application/octet-stream;base64,"
        }
    ]
}
